<svg width="31" height="32" viewBox="0 0 31 32" fill="none" xmlns="http://www.w3.org/2000/svg">
<path opacity="0.8" d="M30 16C30 24.3144 23.4784 31 15.5 31C7.52156 31 1 24.3144 1 16C1 7.68556 7.52156 1 15.5 1C23.4784 1 30 7.68556 30 16Z" fill="#626262" stroke="#ECA43D" stroke-width="2"/>
<path d="M14.3586 24.1849L12.9002 22.6317C11.4065 21.0375 10.0575 19.4554 8.85299 17.8855C7.64794 16.3162 7.04541 14.5865 7.04541 12.6964C7.04541 11.1515 7.48927 9.8613 8.377 8.82586C9.26473 7.79042 10.3709 7.27271 11.6954 7.27271C12.4422 7.27271 13.1468 7.45744 13.809 7.82691C14.4713 8.19704 15.035 8.7026 15.5 9.34358C15.965 8.7026 16.5286 8.19704 17.1909 7.82691C17.8531 7.45744 18.5577 7.27271 19.3045 7.27271C20.629 7.27271 21.7352 7.79042 22.6229 8.82586C23.5106 9.8613 23.9545 11.1515 23.9545 12.6964C23.9545 14.5865 23.3556 16.3205 22.1579 17.8983C20.9602 19.4761 19.6004 21.0621 18.0786 22.6564L16.6413 24.1849C16.3172 24.5465 15.9368 24.7273 15.5 24.7273C15.0631 24.7273 14.6827 24.5465 14.3586 24.1849ZM14.6968 11.3158C14.2881 10.642 13.8513 10.1282 13.3863 9.77452C12.9213 9.42149 12.3577 9.24497 11.6954 9.24497C10.85 9.24497 10.1454 9.57368 9.58177 10.2311C9.01814 10.8885 8.73632 11.7103 8.73632 12.6964C8.73632 13.5511 8.997 14.459 9.51836 15.4201C10.0397 16.3819 10.6634 17.3148 11.3894 18.2188C12.1148 19.1227 12.8616 19.9692 13.6298 20.7581C14.3975 21.547 15.0209 22.1962 15.5 22.7057C15.979 22.1962 16.6027 21.547 17.3709 20.7581C18.1386 19.9692 18.8854 19.1227 19.6114 18.2188C20.3368 17.3148 20.9602 16.3819 21.4815 15.4201C22.0029 14.459 22.2636 13.5511 22.2636 12.6964C22.2636 11.7103 21.9818 10.8885 21.4181 10.2311C20.8545 9.57368 20.15 9.24497 19.3045 9.24497C18.6422 9.24497 18.0786 9.42149 17.6136 9.77452C17.1486 10.1282 16.7118 10.642 16.3031 11.3158C16.2045 11.4802 16.0847 11.6035 15.9438 11.6856C15.8029 11.7678 15.655 11.8089 15.5 11.8089C15.345 11.8089 15.197 11.7678 15.0561 11.6856C14.9152 11.6035 14.7954 11.4802 14.6968 11.3158Z" fill="#ECA43D"/>
</svg>
