<svg width="32" height="32" viewBox="0 0 32 32" fill="none" xmlns="http://www.w3.org/2000/svg">
<circle opacity="0.8" cx="16" cy="16" r="15" fill="#626262" stroke="#ECA43D" stroke-width="2"/>
<path d="M14.8218 24.1849L13.3163 22.6317C11.7745 21.0375 10.3819 19.4554 9.1386 17.8855C7.89467 16.3162 7.27271 14.5865 7.27271 12.6964C7.27271 11.1515 7.73089 9.8613 8.64725 8.82586C9.56361 7.79042 10.7054 7.27271 12.0727 7.27271C12.8436 7.27271 13.5709 7.45744 14.2545 7.82691C14.9382 8.19704 15.52 8.7026 16 9.34358C16.48 8.7026 17.0618 8.19704 17.7454 7.82691C18.4291 7.45744 19.1563 7.27271 19.9273 7.27271C21.2945 7.27271 22.4363 7.79042 23.3527 8.82586C24.2691 9.8613 24.7273 11.1515 24.7273 12.6964C24.7273 14.5865 24.1091 16.3205 22.8727 17.8983C21.6363 19.4761 20.2327 21.0621 18.6618 22.6564L17.1782 24.1849C16.8436 24.5465 16.4509 24.7273 16 24.7273C15.5491 24.7273 15.1563 24.5465 14.8218 24.1849ZM15.1709 11.3158C14.7491 10.642 14.2982 10.1282 13.8182 9.77452C13.3382 9.42149 12.7563 9.24497 12.0727 9.24497C11.2 9.24497 10.4727 9.57368 9.89089 10.2311C9.30907 10.8885 9.01816 11.7103 9.01816 12.6964C9.01816 13.5511 9.28725 14.459 9.82543 15.4201C10.3636 16.3819 11.0074 17.3148 11.7568 18.2188C12.5056 19.1227 13.2765 19.9692 14.0695 20.7581C14.8619 21.547 15.5054 22.1962 16 22.7057C16.4945 22.1962 17.1383 21.547 17.9313 20.7581C18.7238 19.9692 19.4947 19.1227 20.2441 18.2188C20.9929 17.3148 21.6363 16.3819 22.1745 15.4201C22.7127 14.459 22.9818 13.5511 22.9818 12.6964C22.9818 11.7103 22.6909 10.8885 22.1091 10.2311C21.5273 9.57368 20.8 9.24497 19.9273 9.24497C19.2436 9.24497 18.6618 9.42149 18.1818 9.77452C17.7018 10.1282 17.2509 10.642 16.8291 11.3158C16.7273 11.4802 16.6036 11.6035 16.4582 11.6856C16.3127 11.7678 16.16 11.8089 16 11.8089C15.84 11.8089 15.6873 11.7678 15.5418 11.6856C15.3963 11.6035 15.2727 11.4802 15.1709 11.3158Z" fill="#ECA43D"/>
<path d="M16.9844 24.0121C16.4317 24.6277 15.5808 24.6277 15.0281 24.0031L14.9481 23.9139C11.1299 19.6757 8.63535 16.9008 8.72989 13.4389C8.77353 11.9221 9.40626 10.4677 10.4317 9.61114C12.3517 8.0051 14.7226 8.75459 16.0026 10.5926C17.2826 8.75459 19.6535 7.99617 21.5735 9.61114C22.599 10.4677 23.2317 11.9221 23.2753 13.4389C23.3772 16.9008 20.8753 19.6757 17.0572 23.9318L16.9844 24.0121Z" fill="#ECA43D"/>
</svg>
